<svg width="31" height="30" viewBox="0 0 31 30" fill="none" xmlns="http://www.w3.org/2000/svg">
<path d="M29.4893 13.6821L22.5901 7.5235V3.32898C22.6268 2.48832 22.3617 1.66579 21.8528 1.04175C21.3439 0.417708 20.6328 0.043078 19.8754 0H2.77737C2.02531 0.051532 1.32182 0.429826 0.819316 1.05293C0.316807 1.67603 0.0557436 2.49377 0.0926807 3.32898V19.9739C0.0787605 20.6349 0.242505 21.2855 0.563041 21.8428C0.883577 22.4001 1.34639 22.8389 1.89247 23.1031C1.61626 23.8531 1.50861 24.6663 1.57881 25.4727C1.64901 26.2791 1.89496 27.0545 2.29544 27.7319C2.69591 28.4092 3.23888 28.9683 3.8775 29.3608C4.51611 29.7533 5.23119 29.9675 5.96104 29.9849C6.69089 30.0022 7.41358 29.8222 8.06676 29.4604C8.71995 29.0986 9.284 28.5659 9.71025 27.9082C10.1365 27.2505 10.4122 26.4875 10.5134 25.6852C10.6147 24.8829 10.5385 24.0653 10.2915 23.3029H19.8304C19.5837 24.0571 19.5045 24.8662 19.5993 25.6616C19.6942 26.4571 19.9604 27.2154 20.3753 27.8725C20.7903 28.5296 21.3418 29.066 21.9832 29.4363C22.6246 29.8066 23.3369 30 24.0599 30C24.7829 30 25.4953 29.8066 26.1367 29.4363C26.778 29.066 27.3296 28.5296 27.7445 27.8725C28.1595 27.2154 28.4257 26.4571 28.5205 25.6616C28.6154 24.8662 28.5361 24.0571 28.2894 23.3029H28.5894C28.9872 23.3029 29.3687 23.1275 29.6499 22.8154C29.9312 22.5032 30.0892 22.0798 30.0892 21.6384V14.9804C30.0846 14.7277 30.0282 14.4794 29.9243 14.2544C29.8203 14.0295 29.6716 13.8338 29.4893 13.6821ZM27.0896 15.7794V19.9739H22.5901V11.7846L27.0896 15.7794ZM7.59182 24.9674C7.59182 25.2966 7.50386 25.6184 7.33905 25.8921C7.17425 26.1658 6.94001 26.3792 6.66595 26.5052C6.39189 26.6311 6.09033 26.6641 5.79939 26.5999C5.50845 26.5357 5.24121 26.3771 5.03145 26.1443C4.8217 25.9116 4.67885 25.615 4.62098 25.2921C4.56311 24.9692 4.59281 24.6345 4.70633 24.3304C4.81985 24.0263 5.01209 23.7663 5.25873 23.5834C5.50538 23.4005 5.79535 23.3029 6.09199 23.3029C6.48977 23.3029 6.87126 23.4782 7.15253 23.7904C7.4338 24.1025 7.59182 24.5259 7.59182 24.9674ZM15.091 19.9739H3.09234V3.32898H19.5904V19.9739H15.091ZM25.5898 24.9674C25.5898 25.2966 25.5018 25.6184 25.337 25.8921C25.1722 26.1658 24.9379 26.3792 24.6639 26.5052C24.3898 26.6311 24.0883 26.6641 23.7973 26.5999C23.5064 26.5357 23.2391 26.3771 23.0294 26.1443C22.8196 25.9116 22.6768 25.615 22.6189 25.2921C22.561 24.9692 22.5907 24.6345 22.7043 24.3304C22.8178 24.0263 23.01 23.7663 23.2567 23.5834C23.5033 23.4005 23.7933 23.3029 24.0899 23.3029C24.4877 23.3029 24.8692 23.4782 25.1505 23.7904C25.4317 24.1025 25.5898 24.5259 25.5898 24.9674Z" fill="#6563FF"/>
</svg>
