<svg width="112" height="32" viewBox="0 0 112 32" fill="none" xmlns="http://www.w3.org/2000/svg">
<path d="M58.5774 8.03904H55.2462L53.3674 10.741H56.6969L58.5774 8.03904ZM67.219 15.1484C65.474 15.2764 62.3907 16.661 60.7115 19.6863C59.0322 22.7115 59.0261 24.5791 59.0261 24.5791C59.0261 24.5791 59.9117 23.718 61.2694 22.8163C62.6271 21.9147 63.6375 21.5944 63.6375 21.5944C63.6375 21.5944 63.8894 20.4836 64.5165 19.322C65.1262 18.1919 66.0937 17.0155 67.2909 16.7485C69.7176 16.2067 68.5555 20.1351 66.7731 22.6967C65.8151 24.0734 62.417 28.03 59.4915 28.03C56.566 28.03 56.0014 25.5282 56.6184 23.189C57.2348 20.8504 58.0881 17.879 62.3562 12.48C66.6243 7.08105 71.2441 3.88031 73.9183 2.53525C76.6649 1.15461 77.784 1.75966 77.784 1.75966C77.784 1.75966 74.2778 3.67516 72.283 5.9797C70.3758 8.1824 69.2377 10.6609 70.1228 11.8755C70.9655 13.0327 73.9361 13.0544 77.2071 8.86555C80.4358 4.73054 79.6204 2.27178 79.6204 2.27178C79.6204 2.27178 80.0106 2.15908 80.2725 2.12793C81.847 1.94207 83.1083 2.31034 85.0612 3.19864C87.1072 4.12945 89.0702 5.6223 91.7599 6.84377C92.5697 6.05681 93.471 5.22091 94.419 4.40528C90.7929 2.83976 88.0402 0.608385 84.4838 0.394343C81.3883 0.208478 78.9477 1.20899 78.9477 1.20899C78.9477 1.20899 78.0036 0.0685842 75.0909 0.440809C72.1782 0.813529 63.2045 4.14131 55.5694 14.9858C48.6662 24.7907 51.9188 30.4096 56.8809 30.3454C62.2598 30.2752 67.3767 24.9696 69.1084 20.5943C70.8401 16.2191 68.7935 15.0332 67.219 15.1484ZM77.7784 6.03753C76.8744 7.99208 75.5435 9.3579 74.2337 10.4009C72.5539 11.739 71.632 11.6941 71.233 11.4252C70.1908 10.7212 71.5891 8.06673 74.0164 5.69299C76.4336 3.32864 78.5147 2.59309 78.5147 2.59309C78.5147 2.62077 78.8608 3.69395 77.7784 6.03753ZM107.732 3.18727C105.27 4.59164 101.858 5.86353 98.5824 5.58325C97.7541 6.34599 96.8657 7.22489 95.9745 8.18635C101.659 9.18093 106.632 6.0573 109.279 3.39587C110.931 1.73643 111.746 0.254944 111.746 0.254944C111.746 0.254944 110.169 1.79624 107.732 3.18727Z" fill="#F40009"/>
<path d="M58.5774 8.03904H55.2462L53.3674 10.741H56.6969L58.5774 8.03904ZM67.219 15.1484C65.474 15.2764 62.3907 16.661 60.7115 19.6863C59.0322 22.7115 59.0261 24.5791 59.0261 24.5791C59.0261 24.5791 59.9117 23.718 61.2694 22.8163C62.6271 21.9147 63.6375 21.5944 63.6375 21.5944C63.6375 21.5944 63.8894 20.4836 64.5165 19.322C65.1262 18.1919 66.0937 17.0155 67.2909 16.7485C69.7176 16.2067 68.5555 20.1351 66.7731 22.6967C65.8151 24.0734 62.417 28.03 59.4915 28.03C56.566 28.03 56.0014 25.5282 56.6184 23.189C57.2348 20.8504 58.0881 17.879 62.3562 12.48C66.6243 7.08105 71.2441 3.88031 73.9183 2.53525C76.6649 1.15461 77.784 1.75966 77.784 1.75966C77.784 1.75966 74.2778 3.67516 72.283 5.9797C70.3758 8.1824 69.2377 10.6609 70.1228 11.8755C70.9655 13.0327 73.9361 13.0544 77.2071 8.86555C80.4358 4.73054 79.6204 2.27178 79.6204 2.27178C79.6204 2.27178 80.0106 2.15908 80.2725 2.12793C81.847 1.94207 83.1083 2.31034 85.0612 3.19864C87.1072 4.12945 89.0702 5.6223 91.7599 6.84377C92.5697 6.05681 93.471 5.22091 94.419 4.40528C90.7929 2.83976 88.0402 0.608385 84.4838 0.394343C81.3883 0.208478 78.9477 1.20899 78.9477 1.20899C78.9477 1.20899 78.0036 0.0685842 75.0909 0.440809C72.1782 0.813529 63.2045 4.14131 55.5694 14.9858C48.6662 24.7907 51.9188 30.4096 56.8809 30.3454C62.2598 30.2752 67.3767 24.9696 69.1084 20.5943C70.8401 16.2191 68.7935 15.0332 67.219 15.1484ZM77.7784 6.03753C76.8744 7.99208 75.5435 9.3579 74.2337 10.4009C72.5539 11.739 71.632 11.6941 71.233 11.4252C70.1908 10.7212 71.5891 8.06673 74.0164 5.69299C76.4336 3.32864 78.5147 2.59309 78.5147 2.59309C78.5147 2.62077 78.8608 3.69395 77.7784 6.03753ZM107.732 3.18727C105.27 4.59164 101.858 5.86353 98.5824 5.58325C97.7541 6.34599 96.8657 7.22489 95.9745 8.18635C101.659 9.18093 106.632 6.0573 109.279 3.39587C110.931 1.73643 111.746 0.254944 111.746 0.254944C111.746 0.254944 110.169 1.79624 107.732 3.18727Z" fill="#434343"/>
<path d="M105.043 15.5098H101.54L100.971 16.2898C100.971 16.2898 100.256 15.1464 99.0461 15.1647C96.9728 15.1964 94.8978 16.6002 92.4867 19.0353C90.7194 20.8193 87.79 24.7912 87.79 24.7912C87.79 24.7912 85.5423 27.8634 84.4053 27.6226C82.4668 27.2119 86.0322 20.8504 86.0322 20.8504C86.0322 20.8504 87.9065 19.8237 90.3354 18.011C91.8648 16.8701 93.6243 15.3007 95.2417 13.8459C96.7125 12.5226 98.4459 10.7257 100.093 8.75732C99.6715 8.81664 99.239 8.85668 98.7981 8.87595C97.3206 10.6041 95.7433 12.1508 94.4018 13.3802C92.4048 15.2102 90.5678 16.7075 89.233 17.6625C87.9539 18.577 87.1335 18.9888 87.1335 18.9888C87.1335 18.9888 89.5735 14.5444 93.6404 9.63375C97.7074 4.72364 103.402 0.162033 102.955 2.32618C102.828 2.94754 102.392 3.83881 101.735 4.89666C102.198 4.81114 102.647 4.70436 103.081 4.58276C104.061 2.78886 104.394 1.31034 103.663 0.88325C100.679 -0.859732 93.0892 6.35244 89.2843 10.5413C85.4798 14.7302 82.0366 21.1317 82.0366 21.1317C82.0366 21.1317 81.4413 21.3532 80.7831 21.4639C80.3679 21.5341 80.1907 21.5188 80.1227 21.495C80.0887 21.4827 80.0848 21.4619 80.0848 21.4619C80.0848 21.4619 83.4316 15.9126 80.0051 15.1766C76.6983 14.4667 70.9689 19.8924 68.9318 23.6666C67.534 26.2558 66.7453 29.5154 69.1425 30.2915C71.7386 31.1323 76.1483 26.9286 77.1849 25.7071C78.2216 24.4852 79.5157 22.4535 79.5157 22.4535C79.5157 22.4535 80.1489 22.4239 80.495 22.3789C81.1571 22.2924 81.467 22.2202 81.467 22.2202C81.467 22.2202 81.0378 23.2172 80.5736 24.4812C79.708 26.8382 78.9272 30.2104 82.0433 30.3691C84.0285 30.4695 86.9412 27.2895 86.9412 27.2895C86.9412 27.2895 86.1576 30.117 88.7342 30.3691C90.6364 30.555 93.4047 27.9484 93.4047 27.9484C93.4047 27.9484 92.8016 30.1941 94.73 30.3918C96.3809 30.5614 98.7245 28.8446 100.646 26.9558C102.745 24.8935 104.354 22.6349 104.354 22.6349H103.134C103.134 22.6349 100.434 26.2702 98.5378 27.243C96.9812 28.0418 97.5145 26.762 97.9866 26.0912C98.5072 25.3512 105.041 15.5098 105.041 15.5103L105.043 15.5098ZM78.3542 22.3566C78.3063 22.454 77.4296 23.807 76.4916 24.8708C75.4811 26.0171 73.6313 27.7423 72.5194 27.3775C70.7811 26.807 72.6938 23.4481 73.9445 21.8188C75.1952 20.1895 75.3373 20.0793 75.3724 20.0368C75.4075 19.9943 75.4427 19.9552 75.4733 20.0056C75.504 20.0561 75.9019 20.7254 76.6878 21.3062C77.477 21.8895 78.2361 22.1975 78.2974 22.2167C78.3587 22.236 78.4027 22.2592 78.3542 22.3561V22.3566ZM79.1362 21.146C79.0264 21.3082 78.9478 21.3161 78.7198 21.2622C78.3186 21.1658 76.656 20.4841 76.6688 18.972C76.6805 17.4984 79.0225 16.055 79.941 16.6719C80.7982 17.2473 80.3885 18.7184 80.0653 19.4688C79.7426 20.2187 79.2081 21.0398 79.1362 21.146ZM95.0494 24.7912C94.5868 25.3537 94.2 25.8619 93.8511 26.2188C93.1054 26.9825 92.6188 27.3379 92.1852 27.4318C91.9668 27.4788 91.6959 27.4674 91.5164 27.371C90.8799 27.0275 91.3258 25.6898 92.4338 23.8915C93.4476 22.2479 94.6191 20.6033 96.5448 18.71C98.4782 16.8093 99.2178 16.7179 99.759 16.7396C100.214 16.7569 100.279 17.1816 100.279 17.1816C100.279 17.1816 100.247 17.2799 100.174 17.3912C99.536 18.3724 96.3213 23.2444 95.0489 24.7912H95.0494ZM43.3799 27.1689C41.2558 26.0047 38.531 25.2578 35.4004 25.2336C27.3356 25.1713 18.5547 28.6464 12.6073 28.6934C5.5926 28.7477 5.24314 23.9612 5.76315 21.3329C6.88229 15.6704 11.4107 10.2685 14.3223 7.42017C17.2344 4.57189 20.2858 2.36177 22.8228 1.79676C25.3599 1.23175 25.1213 2.94309 24.8109 3.17691C24.4904 3.18284 23.8757 3.24414 23.5268 3.45818C22.9806 3.79234 22.251 4.40431 22.2053 5.37467C22.1267 6.8695 24.3048 7.13149 25.8793 4.00144C26.9533 1.86646 25.2501 0.417598 23.8355 0.278199C21.8954 0.0864019 18.9304 0.684532 15.3912 2.70186C9.23149 6.21254 0.992293 14.0085 0.782175 22.6582C0.662347 27.5925 4.29678 30.3691 9.28332 30.3691C14.2699 30.3691 21.0399 27.6607 27.6505 27.5915C31.7437 27.5604 34.3927 28.8328 35.7342 30.905C35.7342 30.905 37.0674 28.938 40.0364 28.8328C42.9736 28.728 46.2073 29.4581 48.8619 31.1131C47.9763 29.9781 45.4727 28.3157 43.3793 27.1689H43.3799Z" fill="#F40009"/>
<path d="M105.043 15.5098H101.54L100.971 16.2898C100.971 16.2898 100.256 15.1464 99.0461 15.1647C96.9728 15.1964 94.8978 16.6002 92.4867 19.0353C90.7194 20.8193 87.79 24.7912 87.79 24.7912C87.79 24.7912 85.5423 27.8634 84.4053 27.6226C82.4668 27.2119 86.0322 20.8504 86.0322 20.8504C86.0322 20.8504 87.9065 19.8237 90.3354 18.011C91.8648 16.8701 93.6243 15.3007 95.2417 13.8459C96.7125 12.5226 98.4459 10.7257 100.093 8.75732C99.6715 8.81664 99.239 8.85668 98.7981 8.87595C97.3206 10.6041 95.7433 12.1508 94.4018 13.3802C92.4048 15.2102 90.5678 16.7075 89.233 17.6625C87.9539 18.577 87.1335 18.9888 87.1335 18.9888C87.1335 18.9888 89.5735 14.5444 93.6404 9.63375C97.7074 4.72364 103.402 0.162033 102.955 2.32618C102.828 2.94754 102.392 3.83881 101.735 4.89666C102.198 4.81114 102.647 4.70436 103.081 4.58276C104.061 2.78886 104.394 1.31034 103.663 0.88325C100.679 -0.859732 93.0892 6.35244 89.2843 10.5413C85.4798 14.7302 82.0366 21.1317 82.0366 21.1317C82.0366 21.1317 81.4413 21.3532 80.7831 21.4639C80.3679 21.5341 80.1907 21.5188 80.1227 21.495C80.0887 21.4827 80.0848 21.4619 80.0848 21.4619C80.0848 21.4619 83.4316 15.9126 80.0051 15.1766C76.6983 14.4667 70.9689 19.8924 68.9318 23.6666C67.534 26.2558 66.7453 29.5154 69.1425 30.2915C71.7386 31.1323 76.1483 26.9286 77.1849 25.7071C78.2216 24.4852 79.5157 22.4535 79.5157 22.4535C79.5157 22.4535 80.1489 22.4239 80.495 22.3789C81.1571 22.2924 81.467 22.2202 81.467 22.2202C81.467 22.2202 81.0378 23.2172 80.5736 24.4812C79.708 26.8382 78.9272 30.2104 82.0433 30.3691C84.0285 30.4695 86.9412 27.2895 86.9412 27.2895C86.9412 27.2895 86.1576 30.117 88.7342 30.3691C90.6364 30.555 93.4047 27.9484 93.4047 27.9484C93.4047 27.9484 92.8016 30.1941 94.73 30.3918C96.3809 30.5614 98.7245 28.8446 100.646 26.9558C102.745 24.8935 104.354 22.6349 104.354 22.6349H103.134C103.134 22.6349 100.434 26.2702 98.5378 27.243C96.9812 28.0418 97.5145 26.762 97.9866 26.0912C98.5072 25.3512 105.041 15.5098 105.041 15.5103L105.043 15.5098ZM78.3542 22.3566C78.3063 22.454 77.4296 23.807 76.4916 24.8708C75.4811 26.0171 73.6313 27.7423 72.5194 27.3775C70.7811 26.807 72.6938 23.4481 73.9445 21.8188C75.1952 20.1895 75.3373 20.0793 75.3724 20.0368C75.4075 19.9943 75.4427 19.9552 75.4733 20.0056C75.504 20.0561 75.9019 20.7254 76.6878 21.3062C77.477 21.8895 78.2361 22.1975 78.2974 22.2167C78.3587 22.236 78.4027 22.2592 78.3542 22.3561V22.3566ZM79.1362 21.146C79.0264 21.3082 78.9478 21.3161 78.7198 21.2622C78.3186 21.1658 76.656 20.4841 76.6688 18.972C76.6805 17.4984 79.0225 16.055 79.941 16.6719C80.7982 17.2473 80.3885 18.7184 80.0653 19.4688C79.7426 20.2187 79.2081 21.0398 79.1362 21.146ZM95.0494 24.7912C94.5868 25.3537 94.2 25.8619 93.8511 26.2188C93.1054 26.9825 92.6188 27.3379 92.1852 27.4318C91.9668 27.4788 91.6959 27.4674 91.5164 27.371C90.8799 27.0275 91.3258 25.6898 92.4338 23.8915C93.4476 22.2479 94.6191 20.6033 96.5448 18.71C98.4782 16.8093 99.2178 16.7179 99.759 16.7396C100.214 16.7569 100.279 17.1816 100.279 17.1816C100.279 17.1816 100.247 17.2799 100.174 17.3912C99.536 18.3724 96.3213 23.2444 95.0489 24.7912H95.0494ZM43.3799 27.1689C41.2558 26.0047 38.531 25.2578 35.4004 25.2336C27.3356 25.1713 18.5547 28.6464 12.6073 28.6934C5.5926 28.7477 5.24314 23.9612 5.76315 21.3329C6.88229 15.6704 11.4107 10.2685 14.3223 7.42017C17.2344 4.57189 20.2858 2.36177 22.8228 1.79676C25.3599 1.23175 25.1213 2.94309 24.8109 3.17691C24.4904 3.18284 23.8757 3.24414 23.5268 3.45818C22.9806 3.79234 22.251 4.40431 22.2053 5.37467C22.1267 6.8695 24.3048 7.13149 25.8793 4.00144C26.9533 1.86646 25.2501 0.417598 23.8355 0.278199C21.8954 0.0864019 18.9304 0.684532 15.3912 2.70186C9.23149 6.21254 0.992293 14.0085 0.782175 22.6582C0.662347 27.5925 4.29678 30.3691 9.28332 30.3691C14.2699 30.3691 21.0399 27.6607 27.6505 27.5915C31.7437 27.5604 34.3927 28.8328 35.7342 30.905C35.7342 30.905 37.0674 28.938 40.0364 28.8328C42.9736 28.728 46.2073 29.4581 48.8619 31.1131C47.9763 29.9781 45.4727 28.3157 43.3793 27.1689H43.3799Z" fill="#434343"/>
<path d="M25.0137 7.73655C21.6329 6.97233 16.0182 12.0767 13.6523 16.231C12.1931 18.7936 11.5533 22.0141 14.1511 22.852C16.7489 23.6898 21.1563 19.4891 22.193 18.2676C23.2296 17.0456 24.9262 14.5982 24.9262 14.5982C24.9262 14.5982 25.4467 14.5093 25.7878 14.4391C26.1289 14.3689 26.6801 14.2295 26.6801 14.2295C26.6801 14.2295 26.0409 15.2399 25.464 16.2755C24.7802 17.5034 22.922 21.5909 26.5096 22.8169C29.9373 23.9879 34.8168 19.1045 35.0732 19.0121C35.0732 19.0121 33.6207 22.3398 35.8769 22.852C38.3526 23.4135 41.0657 20.6003 41.0657 20.6003C41.0657 20.6003 40.4944 22.7121 42.4234 22.9103C45.8778 23.2647 51.9879 15.4282 51.9879 15.4282H50.7674C50.7674 15.4282 47.658 18.977 46.1626 19.71C44.6673 20.4431 45.2051 19.1406 45.6114 18.5583C46.1297 17.8173 52.7353 8.02771 52.7353 8.02771H49.2324L48.8261 8.59766C48.8261 8.59766 48.1044 7.62038 46.8977 7.69008C43.387 7.89325 39.2098 12.8562 37.3728 15.0436C35.5363 17.2315 31.5742 21.4085 29.488 20.6641C27.2146 19.8524 29.4752 16.1262 30.9706 13.9383C32.5986 11.5567 35.4839 9.19777 36.6248 9.17948C38.0288 9.15624 37.4775 10.2848 37.4775 10.2848C37.4775 10.2848 36.4281 10.1686 35.6673 11.0179C35.1289 11.6185 34.683 12.4954 35.1947 12.9724C36.0212 13.7431 37.0974 12.9606 37.74 12.0876C39.7437 9.36732 38.2779 7.93378 36.7039 7.72469C33.351 7.27831 30.2622 11.0989 27.9141 12.5186C26.285 13.5028 25.6045 13.4262 25.6045 13.4262C25.6045 13.4262 28.4308 8.50868 25.0142 7.73606L25.0137 7.73655ZM40.1929 16.5335C41.2067 14.8894 42.5878 13.3021 44.3852 11.3125C46.1827 9.32283 47.0772 9.16168 47.6184 9.18343C48.0737 9.20123 48.1384 9.62536 48.1384 9.62536C48.1384 9.62536 44.2331 15.6605 42.8163 17.3828C42.3537 17.9453 41.958 18.4218 41.6091 18.7792C40.8634 19.543 40.3217 19.9122 39.9037 20.0042C39.6852 20.0516 39.4143 20.0397 39.2343 19.9429C38.5978 19.5993 39.0832 18.3314 40.1924 16.5335H40.1929ZM23.6187 14.575C23.5702 14.6719 22.4549 16.3076 21.5175 17.3714C20.5076 18.5177 18.641 20.2498 17.5291 19.885C15.7908 19.3146 17.6451 15.9789 18.8957 14.3501C20.1464 12.7208 20.3298 12.5112 20.3655 12.4692C20.4006 12.4262 20.4351 12.3871 20.4658 12.4381C20.4964 12.4885 20.8944 13.2141 21.756 13.7025C22.6177 14.1914 23.5011 14.4163 23.5624 14.4356C23.6237 14.4549 23.6677 14.4786 23.6192 14.575H23.6187ZM25.0728 12.0288C24.7495 12.7796 24.4608 13.2527 24.4012 13.3644C24.3053 13.5434 24.0651 13.486 24.0651 13.486C23.7914 13.4751 21.6641 13.0446 21.6763 11.5325C21.688 10.0589 24.0305 8.61546 24.9485 9.23237C25.8057 9.80776 25.396 11.2789 25.0728 12.0288ZM102.407 28.5752C102.202 28.4724 101.975 28.4215 101.725 28.4215C101.474 28.4215 101.247 28.4729 101.042 28.5752C100.838 28.678 100.677 28.8174 100.56 28.9949C100.443 29.1719 100.384 29.3647 100.384 29.5723C100.384 29.7799 100.442 29.9761 100.56 30.1521C100.677 30.3276 100.838 30.467 101.042 30.5693C101.247 30.6721 101.474 30.7231 101.725 30.7231C101.975 30.7231 102.202 30.6716 102.407 30.5693C102.611 30.467 102.772 30.3276 102.889 30.1521C103.007 29.9766 103.066 29.7833 103.066 29.5723C103.066 29.3612 103.007 29.1719 102.889 28.9949C102.772 28.8179 102.611 28.678 102.407 28.5752ZM102.647 30.0488C102.558 30.1892 102.434 30.2994 102.274 30.38C102.114 30.4601 101.93 30.5001 101.725 30.5001C101.519 30.5001 101.336 30.4601 101.176 30.38C101.016 30.2999 100.891 30.1897 100.802 30.0488C100.714 29.9084 100.669 29.7492 100.669 29.5723C100.669 29.3953 100.714 29.2406 100.802 29.1002C100.891 28.9598 101.016 28.8496 101.178 28.769C101.34 28.6884 101.522 28.6489 101.725 28.6489C101.928 28.6489 102.11 28.6889 102.271 28.769C102.433 28.8491 102.558 28.9593 102.647 29.1002C102.736 29.2406 102.78 29.3983 102.78 29.5723C102.78 29.7463 102.736 29.9084 102.647 30.0488Z" fill="#F40009"/>
<path d="M25.0137 7.73655C21.6329 6.97233 16.0182 12.0767 13.6523 16.231C12.1931 18.7936 11.5533 22.0141 14.1511 22.852C16.7489 23.6898 21.1563 19.4891 22.193 18.2676C23.2296 17.0456 24.9262 14.5982 24.9262 14.5982C24.9262 14.5982 25.4467 14.5093 25.7878 14.4391C26.1289 14.3689 26.6801 14.2295 26.6801 14.2295C26.6801 14.2295 26.0409 15.2399 25.464 16.2755C24.7802 17.5034 22.922 21.5909 26.5096 22.8169C29.9373 23.9879 34.8168 19.1045 35.0732 19.0121C35.0732 19.0121 33.6207 22.3398 35.8769 22.852C38.3526 23.4135 41.0657 20.6003 41.0657 20.6003C41.0657 20.6003 40.4944 22.7121 42.4234 22.9103C45.8778 23.2647 51.9879 15.4282 51.9879 15.4282H50.7674C50.7674 15.4282 47.658 18.977 46.1626 19.71C44.6673 20.4431 45.2051 19.1406 45.6114 18.5583C46.1297 17.8173 52.7353 8.02771 52.7353 8.02771H49.2324L48.8261 8.59766C48.8261 8.59766 48.1044 7.62038 46.8977 7.69008C43.387 7.89325 39.2098 12.8562 37.3728 15.0436C35.5363 17.2315 31.5742 21.4085 29.488 20.6641C27.2146 19.8524 29.4752 16.1262 30.9706 13.9383C32.5986 11.5567 35.4839 9.19777 36.6248 9.17948C38.0288 9.15624 37.4775 10.2848 37.4775 10.2848C37.4775 10.2848 36.4281 10.1686 35.6673 11.0179C35.1289 11.6185 34.683 12.4954 35.1947 12.9724C36.0212 13.7431 37.0974 12.9606 37.74 12.0876C39.7437 9.36732 38.2779 7.93378 36.7039 7.72469C33.351 7.27831 30.2622 11.0989 27.9141 12.5186C26.285 13.5028 25.6045 13.4262 25.6045 13.4262C25.6045 13.4262 28.4308 8.50868 25.0142 7.73606L25.0137 7.73655ZM40.1929 16.5335C41.2067 14.8894 42.5878 13.3021 44.3852 11.3125C46.1827 9.32283 47.0772 9.16168 47.6184 9.18343C48.0737 9.20123 48.1384 9.62536 48.1384 9.62536C48.1384 9.62536 44.2331 15.6605 42.8163 17.3828C42.3537 17.9453 41.958 18.4218 41.6091 18.7792C40.8634 19.543 40.3217 19.9122 39.9037 20.0042C39.6852 20.0516 39.4143 20.0397 39.2343 19.9429C38.5978 19.5993 39.0832 18.3314 40.1924 16.5335H40.1929ZM23.6187 14.575C23.5702 14.6719 22.4549 16.3076 21.5175 17.3714C20.5076 18.5177 18.641 20.2498 17.5291 19.885C15.7908 19.3146 17.6451 15.9789 18.8957 14.3501C20.1464 12.7208 20.3298 12.5112 20.3655 12.4692C20.4006 12.4262 20.4351 12.3871 20.4658 12.4381C20.4964 12.4885 20.8944 13.2141 21.756 13.7025C22.6177 14.1914 23.5011 14.4163 23.5624 14.4356C23.6237 14.4549 23.6677 14.4786 23.6192 14.575H23.6187ZM25.0728 12.0288C24.7495 12.7796 24.4608 13.2527 24.4012 13.3644C24.3053 13.5434 24.0651 13.486 24.0651 13.486C23.7914 13.4751 21.6641 13.0446 21.6763 11.5325C21.688 10.0589 24.0305 8.61546 24.9485 9.23237C25.8057 9.80776 25.396 11.2789 25.0728 12.0288ZM102.407 28.5752C102.202 28.4724 101.975 28.4215 101.725 28.4215C101.474 28.4215 101.247 28.4729 101.042 28.5752C100.838 28.678 100.677 28.8174 100.56 28.9949C100.443 29.1719 100.384 29.3647 100.384 29.5723C100.384 29.7799 100.442 29.9761 100.56 30.1521C100.677 30.3276 100.838 30.467 101.042 30.5693C101.247 30.6721 101.474 30.7231 101.725 30.7231C101.975 30.7231 102.202 30.6716 102.407 30.5693C102.611 30.467 102.772 30.3276 102.889 30.1521C103.007 29.9766 103.066 29.7833 103.066 29.5723C103.066 29.3612 103.007 29.1719 102.889 28.9949C102.772 28.8179 102.611 28.678 102.407 28.5752ZM102.647 30.0488C102.558 30.1892 102.434 30.2994 102.274 30.38C102.114 30.4601 101.93 30.5001 101.725 30.5001C101.519 30.5001 101.336 30.4601 101.176 30.38C101.016 30.2999 100.891 30.1897 100.802 30.0488C100.714 29.9084 100.669 29.7492 100.669 29.5723C100.669 29.3953 100.714 29.2406 100.802 29.1002C100.891 28.9598 101.016 28.8496 101.178 28.769C101.34 28.6884 101.522 28.6489 101.725 28.6489C101.928 28.6489 102.11 28.6889 102.271 28.769C102.433 28.8491 102.558 28.9593 102.647 29.1002C102.736 29.2406 102.78 29.3983 102.78 29.5723C102.78 29.7463 102.736 29.9084 102.647 30.0488Z" fill="#434343"/>
<path d="M102.228 29.5534C102.266 29.4985 102.285 29.4372 102.285 29.37C102.285 29.2771 102.251 29.1995 102.183 29.1363C102.115 29.073 102.024 29.0414 101.91 29.0414H101.23V30.0826H101.53V29.7031H101.757L102.033 30.0826H102.376L102.067 29.6779C102.136 29.6497 102.191 29.6082 102.228 29.5534ZM101.943 29.4436C101.921 29.4619 101.891 29.4708 101.853 29.4708H101.53V29.2687H101.853C101.891 29.2687 101.921 29.2781 101.943 29.2959C101.965 29.3142 101.977 29.3389 101.977 29.3695C101.977 29.4002 101.965 29.4249 101.943 29.4432V29.4436Z" fill="#F40009"/>
<path d="M102.228 29.5534C102.266 29.4985 102.285 29.4372 102.285 29.37C102.285 29.2771 102.251 29.1995 102.183 29.1363C102.115 29.073 102.024 29.0414 101.91 29.0414H101.23V30.0826H101.53V29.7031H101.757L102.033 30.0826H102.376L102.067 29.6779C102.136 29.6497 102.191 29.6082 102.228 29.5534ZM101.943 29.4436C101.921 29.4619 101.891 29.4708 101.853 29.4708H101.53V29.2687H101.853C101.891 29.2687 101.921 29.2781 101.943 29.2959C101.965 29.3142 101.977 29.3389 101.977 29.3695C101.977 29.4002 101.965 29.4249 101.943 29.4432V29.4436Z" fill="#434343"/>
</svg>
