<svg width="25" height="25" viewBox="0 0 25 25" fill="none" xmlns="http://www.w3.org/2000/svg">
<path d="M23.3157 0H1.4859C1.16425 0 0.855781 0.131696 0.628343 0.366116C0.400905 0.600537 0.273132 0.918479 0.273132 1.25V23.75C0.273132 24.0815 0.400905 24.3995 0.628343 24.6339C0.855781 24.8683 1.16425 25 1.4859 25H23.3157C23.6373 25 23.9458 24.8683 24.1732 24.6339C24.4007 24.3995 24.5285 24.0815 24.5285 23.75V1.25C24.5285 0.918479 24.4007 0.600537 24.1732 0.366116C23.9458 0.131696 23.6373 0 23.3157 0ZM7.54973 22.5H2.69866V2.5H7.54973V22.5ZM22.1029 22.5H9.97526V13.75H22.1029V22.5ZM22.1029 11.25H9.97526V2.5H22.1029V11.25Z" fill="#6563FF"/>
</svg>
