<svg width="112" height="42" viewBox="0 0 112 42" fill="none" xmlns="http://www.w3.org/2000/svg">
<path d="M56.167 4.7182C56.9265 4.74974 57.6519 5.00739 58.2264 5.44966C59.0094 6.10798 59.2147 7.2057 58.8441 8.08399C57.4035 10.7178 53.9775 12.477 51.6364 13.059C50.2358 13.3516 48.4651 13.3516 47.1881 12.9127C46.5698 13.2419 46.0483 14.3057 45.2933 13.8636C44.2007 13.1056 45.1465 11.9194 44.5158 11.0777C44.3857 10.9044 44.058 10.8916 43.8933 10.6081C43.028 8.92517 44.0992 7.31542 45.2933 6.03536C47.2842 4.06253 52.9958 1.86443 56.167 4.7182ZM49.5358 6.03483C48.4234 6.2177 47.1672 6.64757 46.4881 7.352C45.8084 8.0559 45.3763 8.74231 45.7881 9.47377C47.2298 8.52287 47.9299 7.20571 49.5363 6.4011C49.5357 6.25427 49.7828 6.14455 49.5358 6.03483ZM56.25 6.4011C53.4076 6.18113 51.2658 8.08399 49.2475 9.91265C49.124 10.2052 48.3828 10.5344 48.9593 10.8636C51.6781 11.083 54.2729 10.3886 56.25 8.77835C56.827 8.3029 57.2376 7.68116 56.9506 7.02231C56.827 6.76683 56.5364 6.51081 56.25 6.4011ZM80.879 17.3026C82.1973 20.1563 83.3091 24.6554 80.879 27.3994C80.2202 28.0577 79.0673 28.6646 78.3261 28.1674C75.6072 26.2291 74.4549 23.4484 72.766 20.9604C72.519 20.8507 72.519 21.1438 72.3954 21.2535C71.7778 23.7776 72.9307 27.0703 70.9954 29.0452C70.2542 29.1549 69.5608 28.8162 69.3066 28.1674C68.3589 25.5702 69.3466 22.8627 69.5936 20.2655C70.1707 18.9484 70.4177 17.4123 71.6948 16.4243C73.7543 17.1557 74.7425 19.2049 75.936 20.7049C76.8019 21.8387 77.5013 23.1193 78.4896 24.1433C79.3543 23.8142 78.9288 22.8103 78.9019 22.2044C78.5713 19.8266 77.8302 17.6317 77.1296 15.3636C77.0896 14.7785 76.719 13.7905 77.4178 13.4247C79.2737 14.1567 80.0549 15.8757 80.879 17.3026ZM68.4407 16.4243C68.4407 16.9734 67.9465 17.6593 67.5336 17.7414C63.58 18.29 59.1729 17.9609 55.4664 19.0581C55.3429 19.4604 55.8782 19.5335 56.1664 19.6432C59.337 20.0821 62.6741 20.1918 65.7636 20.8873C67.3969 21.2556 67.9883 22.973 68.1118 24.3994C68.1876 25.5241 67.7007 26.8869 66.4642 27.6554C63.4171 29.3749 58.7629 29.3012 55.6729 27.7291C54.4919 27.1407 53.3664 26.193 53.284 25.0222C53.2912 24.0925 53.7376 23.3605 54.4788 23.0101C57.4447 21.9489 61.11 22.5352 63.6642 23.8879C63.8277 24.6198 62.9361 24.5801 62.5094 24.8393C59.667 26.3027 57.5258 23.194 54.8899 24.3267C54.5193 24.5462 54.2514 25.1584 54.684 25.3513C57.9376 26.6319 61.5623 25.717 64.7747 24.9124C65.1453 24.8027 65.5989 24.4736 65.6395 24.1444C65.5159 22.9735 64.0336 22.718 63.0859 22.3889C60.2853 21.7671 57.1964 21.7671 54.1893 21.5111C53.6128 21.4014 52.8782 21.0447 52.707 20.6334C52.3775 19.7556 52.3775 18.5482 53.1187 17.8167C56.9488 14.8166 62.7559 15.0732 67.6159 15.8778C67.9459 15.9854 68.3165 16.0951 68.4407 16.4243ZM50.4422 17.8146C50.8128 21.3261 51.0187 24.5827 50.9364 28.2772C50.854 28.7521 50.2363 28.8623 49.8246 29.0452C49.1658 29.1549 48.3142 29.0304 48.0534 28.716C47.1063 27.3618 47.4357 25.5336 47.3534 23.8873C47.4769 21.2906 47.4357 18.4734 48.2599 16.0585C48.4174 15.7077 48.8775 15.4002 49.2481 15.6191C50.2364 16.0585 50.4011 16.9368 50.4422 17.8146ZM96.2022 17.3026C96.4003 17.5983 96.6074 18.0552 96.2022 18.2535C94.3486 18.9849 91.8368 18.6558 89.6944 18.8752C89.118 19.3141 88.6644 20.0455 88.8697 20.7044C89.0768 20.8141 89.2612 20.9811 89.4886 20.9599C90.8056 21.0336 92.7833 20.4113 93.6492 21.5085C93.8605 21.835 93.6206 23.0541 93.0315 23.0817C91.4245 23.2656 88.782 22.9025 88.0056 23.2656C87.0174 23.8507 87.0991 24.9845 86.7285 25.8999C87.4291 26.3022 88.1625 25.8904 88.9932 25.7897C90.5186 25.5702 92.2074 25.1679 93.7304 25.4605C94.0186 25.936 94.431 26.4485 94.1421 27.0337C91.5456 28.8629 88.1966 30.7376 84.6285 29.4115C83.2894 28.8782 82.6926 27.0703 83.1461 25.5347C83.4338 24.437 84.7103 23.3764 83.9285 22.2055C83.805 21.6929 84.135 21.2546 84.6291 21.1449C85.9879 21.1449 85.6991 19.6448 86.3997 18.9494C85.6173 18.1814 83.6409 18.2179 83.8467 16.6813C84.7944 16.2425 85.9479 16.3888 87.0173 16.2425C89.4474 15.8031 92.1656 15.547 94.6386 15.8031C95.131 15.891 95.7904 16.754 96.2022 17.3026ZM37.3856 8.96175C41.1864 11.7212 46.1175 16.4248 45.4998 21.8387C44.758 26.1194 39.6509 29.3383 35.3262 30.3629C31.125 31.4601 25.8531 31.3504 21.569 30.4726C21.2807 31.168 20.9925 32.0087 20.0866 32.3018C19.5101 32.4847 18.7683 32.375 18.3154 32.0458C17.0389 30.9846 18.0683 28.936 16.2148 28.2782C12.59 26.9245 8.67705 24.2536 6.8241 20.9615C6.57703 20.3032 6.86527 19.6448 7.31822 19.1328C10.1606 17.1208 13.7436 16.3161 17.3272 15.6939C17.533 15.767 17.4507 15.511 17.6154 15.4379C17.8213 13.2429 17.9036 11.0109 18.686 9.03543C18.8644 8.75821 19.3036 8.66969 19.5925 8.85256C21.8578 10.3886 20.7866 13.2795 21.7754 15.3642C26.1002 15.547 30.425 15.7299 33.8432 17.8888C34.9968 18.73 35.2778 20.3365 34.9138 21.2546C34.5504 22.171 33.3491 22.8278 32.2367 22.8998C31.4949 22.8998 30.0949 22.964 30.1773 22.4615C30.2596 21.9585 32.6968 21.1353 31.9485 20.4489C30.8725 19.4625 25.4891 18.8757 22.1526 18.51C21.7408 18.4369 21.3631 18.5466 21.3631 18.9489C21.2807 21.729 21.0337 24.8017 21.569 27.4731C21.6101 27.6565 21.8572 27.8759 22.0637 27.9114C27.9532 28.7532 34.1726 28.2772 38.7856 25.2776C40.9274 23.7421 41.628 21.5822 41.2568 19.2049C39.4033 12.5836 31.6191 8.59549 25.2349 6.03483C19.016 3.62047 12.1371 2.37645 4.76466 2.70614C3.59082 2.78247 1.73071 3.14237 1.71698 3.51128C1.70326 3.88019 3.82416 3.76411 3.56994 4.46218C3.31631 5.15972 1.1608 4.74576 0.522258 4.5719C-0.116281 4.39805 -0.0542171 3.5839 0.11049 3.07187C1.71698 0.547792 6.19988 0.343724 8.2247 0.255206C19.4272 -0.00133606 30.2602 3.78797 37.3856 8.96175ZM17.2036 18.766C14.3612 18.8026 11.3547 19.0586 8.71882 19.9364C8.18353 20.1192 7.5241 20.6312 7.93587 21.2535C9.00646 22.5336 10.5378 23.5847 11.9724 24.3262C13.407 25.0667 15.3089 26.0091 17.0389 26.2291C17.4507 23.8507 17.4507 21.5095 17.4095 19.0586C17.2442 18.9855 17.4089 18.8392 17.2036 18.766ZM102.338 15.4368C102.215 18.6192 98.8775 20.5952 98.8775 23.7776C99.001 23.8873 99.0845 24.0336 99.2481 23.9615C101.926 21.3638 104.562 17.6688 108.475 16.5716C109.506 16.4985 110.437 17.2941 110.823 17.8888C112.182 20.3031 111.854 23.7055 109.959 25.9004C108.003 28.0551 104.603 30.2171 100.733 29.8509C99.1275 33.363 98.0133 37.0579 97.3957 40.8992C97.0663 41.6672 96.2845 40.9723 95.7904 40.826C92.4545 38.4848 95.1936 32.287 95.4198 31.4961C95.646 30.7074 96.5387 28.847 97.1916 27.2892C95.6263 24.8022 96.6145 21.8016 97.891 19.497C98.8792 17.9603 100.24 16.4237 101.846 15.2534C102.05 15.2539 102.215 15.2905 102.338 15.4368ZM108.971 19.3878C108.476 19.3146 108.27 19.9003 107.859 20.01C105.965 21.9124 104.069 23.8147 103.122 26.0828C104.399 26.2291 105.469 25.4976 106.582 25.0953C108.476 24.0341 109.671 22.2792 109.548 20.2666C109.465 19.9364 109.135 19.6803 108.971 19.3878Z" fill="#F40009"/>
<path d="M56.167 4.7182C56.9265 4.74974 57.6519 5.00739 58.2264 5.44966C59.0094 6.10798 59.2147 7.2057 58.8441 8.08399C57.4035 10.7178 53.9775 12.477 51.6364 13.059C50.2358 13.3516 48.4651 13.3516 47.1881 12.9127C46.5698 13.2419 46.0483 14.3057 45.2933 13.8636C44.2007 13.1056 45.1465 11.9194 44.5158 11.0777C44.3857 10.9044 44.058 10.8916 43.8933 10.6081C43.028 8.92517 44.0992 7.31542 45.2933 6.03536C47.2842 4.06253 52.9958 1.86443 56.167 4.7182ZM49.5358 6.03483C48.4234 6.2177 47.1672 6.64757 46.4881 7.352C45.8084 8.0559 45.3763 8.74231 45.7881 9.47377C47.2298 8.52287 47.9299 7.20571 49.5363 6.4011C49.5357 6.25427 49.7828 6.14455 49.5358 6.03483ZM56.25 6.4011C53.4076 6.18113 51.2658 8.08399 49.2475 9.91265C49.124 10.2052 48.3828 10.5344 48.9593 10.8636C51.6781 11.083 54.2729 10.3886 56.25 8.77835C56.827 8.3029 57.2376 7.68116 56.9506 7.02231C56.827 6.76683 56.5364 6.51081 56.25 6.4011ZM80.879 17.3026C82.1973 20.1563 83.3091 24.6554 80.879 27.3994C80.2202 28.0577 79.0673 28.6646 78.3261 28.1674C75.6072 26.2291 74.4549 23.4484 72.766 20.9604C72.519 20.8507 72.519 21.1438 72.3954 21.2535C71.7778 23.7776 72.9307 27.0703 70.9954 29.0452C70.2542 29.1549 69.5608 28.8162 69.3066 28.1674C68.3589 25.5702 69.3466 22.8627 69.5936 20.2655C70.1707 18.9484 70.4177 17.4123 71.6948 16.4243C73.7543 17.1557 74.7425 19.2049 75.936 20.7049C76.8019 21.8387 77.5013 23.1193 78.4896 24.1433C79.3543 23.8142 78.9288 22.8103 78.9019 22.2044C78.5713 19.8266 77.8302 17.6317 77.1296 15.3636C77.0896 14.7785 76.719 13.7905 77.4178 13.4247C79.2737 14.1567 80.0549 15.8757 80.879 17.3026ZM68.4407 16.4243C68.4407 16.9734 67.9465 17.6593 67.5336 17.7414C63.58 18.29 59.1729 17.9609 55.4664 19.0581C55.3429 19.4604 55.8782 19.5335 56.1664 19.6432C59.337 20.0821 62.6741 20.1918 65.7636 20.8873C67.3969 21.2556 67.9883 22.973 68.1118 24.3994C68.1876 25.5241 67.7007 26.8869 66.4642 27.6554C63.4171 29.3749 58.7629 29.3012 55.6729 27.7291C54.4919 27.1407 53.3664 26.193 53.284 25.0222C53.2912 24.0925 53.7376 23.3605 54.4788 23.0101C57.4447 21.9489 61.11 22.5352 63.6642 23.8879C63.8277 24.6198 62.9361 24.5801 62.5094 24.8393C59.667 26.3027 57.5258 23.194 54.8899 24.3267C54.5193 24.5462 54.2514 25.1584 54.684 25.3513C57.9376 26.6319 61.5623 25.717 64.7747 24.9124C65.1453 24.8027 65.5989 24.4736 65.6395 24.1444C65.5159 22.9735 64.0336 22.718 63.0859 22.3889C60.2853 21.7671 57.1964 21.7671 54.1893 21.5111C53.6128 21.4014 52.8782 21.0447 52.707 20.6334C52.3775 19.7556 52.3775 18.5482 53.1187 17.8167C56.9488 14.8166 62.7559 15.0732 67.6159 15.8778C67.9459 15.9854 68.3165 16.0951 68.4407 16.4243ZM50.4422 17.8146C50.8128 21.3261 51.0187 24.5827 50.9364 28.2772C50.854 28.7521 50.2363 28.8623 49.8246 29.0452C49.1658 29.1549 48.3142 29.0304 48.0534 28.716C47.1063 27.3618 47.4357 25.5336 47.3534 23.8873C47.4769 21.2906 47.4357 18.4734 48.2599 16.0585C48.4174 15.7077 48.8775 15.4002 49.2481 15.6191C50.2364 16.0585 50.4011 16.9368 50.4422 17.8146ZM96.2022 17.3026C96.4003 17.5983 96.6074 18.0552 96.2022 18.2535C94.3486 18.9849 91.8368 18.6558 89.6944 18.8752C89.118 19.3141 88.6644 20.0455 88.8697 20.7044C89.0768 20.8141 89.2612 20.9811 89.4886 20.9599C90.8056 21.0336 92.7833 20.4113 93.6492 21.5085C93.8605 21.835 93.6206 23.0541 93.0315 23.0817C91.4245 23.2656 88.782 22.9025 88.0056 23.2656C87.0174 23.8507 87.0991 24.9845 86.7285 25.8999C87.4291 26.3022 88.1625 25.8904 88.9932 25.7897C90.5186 25.5702 92.2074 25.1679 93.7304 25.4605C94.0186 25.936 94.431 26.4485 94.1421 27.0337C91.5456 28.8629 88.1966 30.7376 84.6285 29.4115C83.2894 28.8782 82.6926 27.0703 83.1461 25.5347C83.4338 24.437 84.7103 23.3764 83.9285 22.2055C83.805 21.6929 84.135 21.2546 84.6291 21.1449C85.9879 21.1449 85.6991 19.6448 86.3997 18.9494C85.6173 18.1814 83.6409 18.2179 83.8467 16.6813C84.7944 16.2425 85.9479 16.3888 87.0173 16.2425C89.4474 15.8031 92.1656 15.547 94.6386 15.8031C95.131 15.891 95.7904 16.754 96.2022 17.3026ZM37.3856 8.96175C41.1864 11.7212 46.1175 16.4248 45.4998 21.8387C44.758 26.1194 39.6509 29.3383 35.3262 30.3629C31.125 31.4601 25.8531 31.3504 21.569 30.4726C21.2807 31.168 20.9925 32.0087 20.0866 32.3018C19.5101 32.4847 18.7683 32.375 18.3154 32.0458C17.0389 30.9846 18.0683 28.936 16.2148 28.2782C12.59 26.9245 8.67705 24.2536 6.8241 20.9615C6.57703 20.3032 6.86527 19.6448 7.31822 19.1328C10.1606 17.1208 13.7436 16.3161 17.3272 15.6939C17.533 15.767 17.4507 15.511 17.6154 15.4379C17.8213 13.2429 17.9036 11.0109 18.686 9.03543C18.8644 8.75821 19.3036 8.66969 19.5925 8.85256C21.8578 10.3886 20.7866 13.2795 21.7754 15.3642C26.1002 15.547 30.425 15.7299 33.8432 17.8888C34.9968 18.73 35.2778 20.3365 34.9138 21.2546C34.5504 22.171 33.3491 22.8278 32.2367 22.8998C31.4949 22.8998 30.0949 22.964 30.1773 22.4615C30.2596 21.9585 32.6968 21.1353 31.9485 20.4489C30.8725 19.4625 25.4891 18.8757 22.1526 18.51C21.7408 18.4369 21.3631 18.5466 21.3631 18.9489C21.2807 21.729 21.0337 24.8017 21.569 27.4731C21.6101 27.6565 21.8572 27.8759 22.0637 27.9114C27.9532 28.7532 34.1726 28.2772 38.7856 25.2776C40.9274 23.7421 41.628 21.5822 41.2568 19.2049C39.4033 12.5836 31.6191 8.59549 25.2349 6.03483C19.016 3.62047 12.1371 2.37645 4.76466 2.70614C3.59082 2.78247 1.73071 3.14237 1.71698 3.51128C1.70326 3.88019 3.82416 3.76411 3.56994 4.46218C3.31631 5.15972 1.1608 4.74576 0.522258 4.5719C-0.116281 4.39805 -0.0542171 3.5839 0.11049 3.07187C1.71698 0.547792 6.19988 0.343724 8.2247 0.255206C19.4272 -0.00133606 30.2602 3.78797 37.3856 8.96175ZM17.2036 18.766C14.3612 18.8026 11.3547 19.0586 8.71882 19.9364C8.18353 20.1192 7.5241 20.6312 7.93587 21.2535C9.00646 22.5336 10.5378 23.5847 11.9724 24.3262C13.407 25.0667 15.3089 26.0091 17.0389 26.2291C17.4507 23.8507 17.4507 21.5095 17.4095 19.0586C17.2442 18.9855 17.4089 18.8392 17.2036 18.766ZM102.338 15.4368C102.215 18.6192 98.8775 20.5952 98.8775 23.7776C99.001 23.8873 99.0845 24.0336 99.2481 23.9615C101.926 21.3638 104.562 17.6688 108.475 16.5716C109.506 16.4985 110.437 17.2941 110.823 17.8888C112.182 20.3031 111.854 23.7055 109.959 25.9004C108.003 28.0551 104.603 30.2171 100.733 29.8509C99.1275 33.363 98.0133 37.0579 97.3957 40.8992C97.0663 41.6672 96.2845 40.9723 95.7904 40.826C92.4545 38.4848 95.1936 32.287 95.4198 31.4961C95.646 30.7074 96.5387 28.847 97.1916 27.2892C95.6263 24.8022 96.6145 21.8016 97.891 19.497C98.8792 17.9603 100.24 16.4237 101.846 15.2534C102.05 15.2539 102.215 15.2905 102.338 15.4368ZM108.971 19.3878C108.476 19.3146 108.27 19.9003 107.859 20.01C105.965 21.9124 104.069 23.8147 103.122 26.0828C104.399 26.2291 105.469 25.4976 106.582 25.0953C108.476 24.0341 109.671 22.2792 109.548 20.2666C109.465 19.9364 109.135 19.6803 108.971 19.3878Z" fill="#434343"/>
</svg>
