<svg width="116" height="20" viewBox="0 0 116 20" fill="none" xmlns="http://www.w3.org/2000/svg">
<path d="M9.05187 3.35596C7.70312 3.35596 7.2985 3.8823 7.2985 5.05462V6.99253H10.9131L10.5625 10.1506H7.2985V19.6966H2.95553V10.1506H0.0422363V7.01646H2.95553V5.1264C2.95553 1.92047 4.41218 0.245728 8.43145 0.245728C9.26767 0.245728 10.1309 0.293577 10.9671 0.389277V3.35596" fill="#F40009"/>
<path d="M9.05187 3.35596C7.70312 3.35596 7.2985 3.8823 7.2985 5.05462V6.99253H10.9131L10.5625 10.1506H7.2985V19.6966H2.95553V10.1506H0.0422363V7.01646H2.95553V5.1264C2.95553 1.92047 4.41218 0.245728 8.43145 0.245728C9.26767 0.245728 10.1309 0.293577 10.9671 0.389277V3.35596" fill="#434343"/>
<path d="M11.2099 12.9498C11.2099 9.40895 13.0981 6.72937 17.0904 6.72937C19.2484 6.72937 20.5702 7.71029 21.2176 8.95438V7.01647H25.3717V19.7206H21.1906V17.8066C20.5972 19.0267 19.2215 19.9837 17.0635 19.9837C13.0981 19.9837 11.1829 17.3281 11.1829 13.7633M15.5529 13.8111C15.5529 15.7012 16.3351 16.9692 18.3583 16.9692C20.1386 16.9692 21.0288 15.8208 21.0288 14.0025V12.7106C21.0288 10.8923 20.1116 9.7439 18.3583 9.7439C16.3351 9.7439 15.5529 10.988 15.5529 12.902V13.8111Z" fill="#F40009"/>
<path d="M11.2099 12.9498C11.2099 9.40895 13.0981 6.72937 17.0904 6.72937C19.2484 6.72937 20.5702 7.71029 21.2176 8.95438V7.01647H25.3717V19.7206H21.1906V17.8066C20.5972 19.0267 19.2215 19.9837 17.0635 19.9837C13.0981 19.9837 11.1829 17.3281 11.1829 13.7633M15.5529 13.8111C15.5529 15.7012 16.3351 16.9692 18.3583 16.9692C20.1386 16.9692 21.0288 15.8208 21.0288 14.0025V12.7106C21.0288 10.8923 20.1116 9.7439 18.3583 9.7439C16.3351 9.7439 15.5529 10.988 15.5529 12.902V13.8111Z" fill="#434343"/>
<path d="M34.3814 6.72937C36.0538 6.72937 37.6723 7.04039 38.5355 7.59066L37.5644 10.3181C36.6742 9.9353 35.6762 9.7439 34.6781 9.7439C32.3313 9.7439 31.3062 10.9401 31.3062 12.9977V13.7394C31.3062 15.7969 32.3313 16.9931 34.6781 16.9931C35.6762 16.9931 36.6742 16.7778 37.5644 16.395L38.5355 19.1224C37.6723 19.6488 36.0808 19.9837 34.3814 19.9837C29.2831 19.9837 26.9902 17.5673 26.9902 13.6676V13.0695C26.9902 9.1697 29.2831 6.72937 34.3814 6.72937Z" fill="#F40009"/>
<path d="M34.3814 6.72937C36.0538 6.72937 37.6723 7.04039 38.5355 7.59066L37.5644 10.3181C36.6742 9.9353 35.6762 9.7439 34.6781 9.7439C32.3313 9.7439 31.3062 10.9401 31.3062 12.9977V13.7394C31.3062 15.7969 32.3313 16.9931 34.6781 16.9931C35.6762 16.9931 36.6742 16.7778 37.5644 16.395L38.5355 19.1224C37.6723 19.6488 36.0808 19.9837 34.3814 19.9837C29.2831 19.9837 26.9902 17.5673 26.9902 13.6676V13.0695C26.9902 9.1697 29.2831 6.72937 34.3814 6.72937Z" fill="#434343"/>
<path d="M39.1021 13.835V12.7106C39.1021 9.09793 41.4219 6.72937 46.1425 6.72937C50.5934 6.72937 52.5626 9.12186 52.5626 12.6627V14.6963H43.445C43.5259 16.4429 44.4161 17.2085 46.8169 17.2085C48.3814 17.2085 49.946 16.9453 51.4296 16.4429L52.2119 19.0746C51.0789 19.6009 48.7321 20.0077 46.655 20.0077C41.1521 19.9837 39.1021 17.5673 39.1021 13.835ZM43.445 12.1603H48.6782V11.8493C48.6782 10.4616 48.0577 9.3611 46.1425 9.3611C44.2003 9.3611 43.445 10.4616 43.445 12.1603Z" fill="#F40009"/>
<path d="M39.1021 13.835V12.7106C39.1021 9.09793 41.4219 6.72937 46.1425 6.72937C50.5934 6.72937 52.5626 9.12186 52.5626 12.6627V14.6963H43.445C43.5259 16.4429 44.4161 17.2085 46.8169 17.2085C48.3814 17.2085 49.946 16.9453 51.4296 16.4429L52.2119 19.0746C51.0789 19.6009 48.7321 20.0077 46.655 20.0077C41.1521 19.9837 39.1021 17.5673 39.1021 13.835ZM43.445 12.1603H48.6782V11.8493C48.6782 10.4616 48.0577 9.3611 46.1425 9.3611C44.2003 9.3611 43.445 10.4616 43.445 12.1603Z" fill="#434343"/>
<path d="M68.6396 13.7633C68.6396 17.3041 66.7243 19.9837 62.732 19.9837C60.5741 19.9837 59.0635 19.0267 58.47 17.8066V19.7206H54.3698V0.628527L58.7128 0.293579V8.7869C59.3332 7.66243 60.7359 6.75329 62.759 6.75329C66.7243 6.75329 68.6665 9.40895 68.6665 12.9737M64.2966 12.878C64.2966 11.0837 63.5143 9.74389 61.4373 9.74389C59.6569 9.74389 58.7128 10.8684 58.7128 12.6866V14.0264C58.7128 15.8447 59.6839 16.9692 61.4373 16.9692C63.5143 16.9692 64.2966 15.6294 64.2966 13.835V12.878Z" fill="#F40009"/>
<path d="M68.6396 13.7633C68.6396 17.3041 66.7243 19.9837 62.732 19.9837C60.5741 19.9837 59.0635 19.0267 58.47 17.8066V19.7206H54.3698V0.628527L58.7128 0.293579V8.7869C59.3332 7.66243 60.7359 6.75329 62.759 6.75329C66.7243 6.75329 68.6665 9.40895 68.6665 12.9737M64.2966 12.878C64.2966 11.0837 63.5143 9.74389 61.4373 9.74389C59.6569 9.74389 58.7128 10.8684 58.7128 12.6866V14.0264C58.7128 15.8447 59.6839 16.9692 61.4373 16.9692C63.5143 16.9692 64.2966 15.6294 64.2966 13.835V12.878Z" fill="#434343"/>
<path d="M70.0692 13.6676V13.0216C70.0692 9.3611 72.416 6.72937 77.1906 6.72937C81.9652 6.72937 84.312 9.3611 84.312 13.0216V13.6676C84.312 17.3281 81.9652 19.9598 77.1906 19.9598C72.416 19.9598 70.0692 17.352 70.0692 13.6676ZM79.996 12.7584C79.996 11.0837 79.2137 9.7439 77.1906 9.7439C75.1675 9.7439 74.3852 11.0837 74.3852 12.7584V13.9547C74.3852 15.6294 75.1675 16.9692 77.1906 16.9692C79.2137 16.9692 79.996 15.6294 79.996 13.9547V12.7584Z" fill="#F40009"/>
<path d="M70.0692 13.6676V13.0216C70.0692 9.3611 72.416 6.72937 77.1906 6.72937C81.9652 6.72937 84.312 9.3611 84.312 13.0216V13.6676C84.312 17.3281 81.9652 19.9598 77.1906 19.9598C72.416 19.9598 70.0692 17.352 70.0692 13.6676ZM79.996 12.7584C79.996 11.0837 79.2137 9.7439 77.1906 9.7439C75.1675 9.7439 74.3852 11.0837 74.3852 12.7584V13.9547C74.3852 15.6294 75.1675 16.9692 77.1906 16.9692C79.2137 16.9692 79.996 15.6294 79.996 13.9547V12.7584Z" fill="#434343"/>
<path d="M85.7957 13.6676V13.0216C85.7957 9.3611 88.1425 6.72937 92.917 6.72937C97.6916 6.72937 100.038 9.3611 100.038 13.0216V13.6676C100.038 17.3281 97.6916 19.9598 92.917 19.9598C88.1425 19.9598 85.7957 17.352 85.7957 13.6676ZM95.7224 12.7584C95.7224 11.0837 94.9402 9.7439 92.917 9.7439C90.8939 9.7439 90.1116 11.0837 90.1116 12.7584V13.9547C90.1116 15.6294 90.8939 16.9692 92.917 16.9692C94.9402 16.9692 95.7224 15.6294 95.7224 13.9547V12.7584Z" fill="#F40009"/>
<path d="M85.7957 13.6676V13.0216C85.7957 9.3611 88.1425 6.72937 92.917 6.72937C97.6916 6.72937 100.038 9.3611 100.038 13.0216V13.6676C100.038 17.3281 97.6916 19.9598 92.917 19.9598C88.1425 19.9598 85.7957 17.352 85.7957 13.6676ZM95.7224 12.7584C95.7224 11.0837 94.9402 9.7439 92.917 9.7439C90.8939 9.7439 90.1116 11.0837 90.1116 12.7584V13.9547C90.1116 15.6294 90.8939 16.9692 92.917 16.9692C94.9402 16.9692 95.7224 15.6294 95.7224 13.9547V12.7584Z" fill="#434343"/>
<path d="M106 13.0694L110.289 6.99254H114.875L110.397 13.2848L115.063 19.7206H110.451L106 13.5001V19.7206H101.684V0.628526L106 0.269653" fill="#F40009"/>
<path d="M106 13.0694L110.289 6.99254H114.875L110.397 13.2848L115.063 19.7206H110.451L106 13.5001V19.7206H101.684V0.628526L106 0.269653" fill="#434343"/>
</svg>
