<svg width="116" height="23" viewBox="0 0 116 23" fill="none" xmlns="http://www.w3.org/2000/svg">
<mask id="mask0_5_84" style="mask-type:alpha" maskUnits="userSpaceOnUse" x="0" y="0" width="116" height="23">
<path d="M115.475 10.098V8.30387H112.963V5.51473L112.878 5.53782L110.519 6.17809L110.472 6.19063V8.30397H106.748V7.12666C106.748 6.57846 106.886 6.15895 107.159 5.87918C107.429 5.60276 107.816 5.46223 108.31 5.46223C108.664 5.46223 109.032 5.53634 109.401 5.6825L109.494 5.71921V3.82978L109.45 3.81557C109.106 3.70563 108.637 3.65027 108.055 3.65027C107.323 3.65027 106.657 3.79168 106.076 4.07195C105.495 4.35261 105.038 4.75327 104.718 5.26269C104.399 5.77151 104.237 6.35918 104.237 7.00952V8.30387H102.488V10.098H104.237V17.6562H106.748V10.098H110.472V14.9011C110.472 16.8792 111.524 17.8817 113.599 17.8817C113.94 17.8817 114.299 17.8462 114.665 17.7769C115.038 17.7056 115.292 17.6345 115.442 17.5585L115.475 17.5411V15.7304L115.373 15.7903C115.236 15.8709 115.067 15.9367 114.868 15.9856C114.668 16.0355 114.501 16.0604 114.372 16.0604C113.886 16.0604 113.526 15.9443 113.303 15.715C113.077 15.4837 112.963 15.0792 112.963 14.5134V10.098H115.475ZM96.8808 16.0607C95.9694 16.0607 95.2509 15.7927 94.7445 15.2647C94.235 14.7341 93.9769 13.9776 93.9769 13.0164C93.9769 12.0247 94.235 11.2485 94.7447 10.7085C95.2514 10.1721 95.9631 9.89981 96.8604 9.89981C97.731 9.89981 98.4241 10.1598 98.9206 10.6731C99.4195 11.189 99.6727 11.959 99.6727 12.9622C99.6727 13.9778 99.4346 14.7579 98.9651 15.2797C98.4987 15.7976 97.7975 16.0607 96.8808 16.0607ZM96.9924 8.07857C95.2537 8.07857 93.8726 8.53045 92.8879 9.42168C91.9039 10.313 91.405 11.5465 91.405 13.0881C91.405 14.5524 91.892 15.7302 92.8526 16.5883C93.8133 17.4467 95.1207 17.8815 96.7382 17.8815C98.4236 17.8815 99.7772 17.4233 100.761 16.5197C101.746 15.6171 102.244 14.3953 102.244 12.8897C102.244 11.4025 101.776 10.2159 100.853 9.36356C99.9295 8.51082 98.6304 8.07857 96.9924 8.07857ZM87.3565 8.07857C86.1738 8.07857 85.1954 8.3469 84.448 8.87595C83.6961 9.40816 83.3147 10.1062 83.3147 10.9508C83.3147 11.3899 83.397 11.7799 83.559 12.1107C83.722 12.4425 83.9743 12.7347 84.3094 12.98C84.642 13.2232 85.1553 13.478 85.8356 13.7373C86.4075 13.946 86.834 14.1226 87.105 14.2617C87.3698 14.3981 87.5577 14.5352 87.6638 14.6687C87.767 14.7993 87.8193 14.9782 87.8193 15.1988C87.8193 15.8271 87.2888 16.1329 86.1971 16.1329C85.7922 16.1329 85.3304 16.0579 84.8244 15.91C84.3221 15.7644 83.848 15.5512 83.4187 15.2779L83.3144 15.2115V17.3557L83.3527 17.3715C83.708 17.5169 84.156 17.6396 84.6839 17.7361C85.2109 17.8327 85.6897 17.8819 86.1056 17.8819C87.389 17.8819 88.4226 17.6123 89.1767 17.0801C89.9357 16.5442 90.3203 15.8297 90.3203 14.9559C90.3203 14.3255 90.1133 13.7849 89.7051 13.3489C89.2998 12.9164 88.5963 12.5194 87.615 12.1685C86.8332 11.8902 86.3324 11.6592 86.1258 11.4818C85.9266 11.3105 85.8255 11.0682 85.8255 10.7614C85.8255 10.4895 85.9503 10.2716 86.2066 10.0951C86.4648 9.91777 86.8243 9.82757 87.2752 9.82757C87.6936 9.82757 88.1216 9.88619 88.5473 10.0011C88.9727 10.1159 89.3463 10.2698 89.6582 10.458L89.7608 10.5201V8.48624L89.7214 8.47124C89.4336 8.3618 89.0542 8.26815 88.5934 8.19216C88.1346 8.11667 87.7185 8.07857 87.3565 8.07857ZM76.7688 16.0607C75.8576 16.0607 75.1388 15.7927 74.6325 15.2647C74.1229 14.7341 73.8653 13.9778 73.8653 13.0164C73.8653 12.0247 74.1233 11.2485 74.6331 10.7085C75.1394 10.1721 75.8509 9.89981 76.7486 9.89981C77.6189 9.89981 78.312 10.1598 78.8086 10.6731C79.3076 11.189 79.5608 11.959 79.5608 12.9622C79.5608 13.9778 79.3225 14.7579 78.853 15.2797C78.3867 15.7976 77.6858 16.0607 76.7688 16.0607ZM76.8807 8.07857C75.1415 8.07857 73.7603 8.53045 72.7762 9.42168C71.7921 10.313 71.2929 11.5465 71.2929 13.0881C71.2929 14.553 71.7802 15.7302 72.7409 16.5883C73.7016 17.4467 75.0089 17.8815 76.6263 17.8815C78.3116 17.8815 79.6655 17.4233 80.6497 16.5197C81.6337 15.6171 82.1325 14.3953 82.1325 12.8897C82.1325 11.4025 81.6645 10.2159 80.7411 9.36356C79.8172 8.51082 78.5183 8.07857 76.8807 8.07857ZM67.4813 9.9235V8.30387H65.001V17.656H67.4813V12.872C67.4813 12.0586 67.6893 11.3903 68.0997 10.8855C68.5048 10.3867 69.0446 10.134 69.7038 10.134C69.9272 10.134 70.178 10.1667 70.4496 10.2313C70.7184 10.2955 70.9131 10.3653 71.028 10.4387L71.1322 10.5057V8.28789L71.0921 8.27259C70.8611 8.18555 70.5343 8.14163 70.1208 8.14163C69.4975 8.14163 68.9397 8.31927 68.4619 8.66901C68.0426 8.97641 67.7395 9.3979 67.5077 9.9235H67.4813ZM60.5591 8.07857C59.4212 8.07857 58.4062 8.29499 57.5429 8.72161C56.6778 9.14921 56.0088 9.75968 55.5536 10.5359C55.1004 11.3103 54.8703 12.2149 54.8703 13.2236C54.8703 14.1073 55.0934 14.9182 55.5343 15.6328C55.9755 16.3487 56.5999 16.9087 57.3904 17.2972C58.1797 17.6851 59.092 17.8818 60.1021 17.8818C61.2808 17.8818 62.2872 17.6728 63.0941 17.2606L63.1267 17.244V15.2285L63.0225 15.296C62.6569 15.5322 62.2485 15.7207 61.809 15.8565C61.3706 15.9921 60.9709 16.0607 60.6204 16.0607C59.6472 16.0607 58.8659 15.7906 58.2988 15.2581C57.7304 14.7249 57.4422 13.9762 57.4422 13.0341C57.4422 12.086 57.7428 11.318 58.335 10.7514C58.9255 10.1864 59.7083 9.89981 60.6614 9.89981C61.4766 9.89981 62.2711 10.1446 63.0227 10.6282L63.1267 10.6952V8.57161L63.0931 8.55483C62.8103 8.4144 62.4245 8.29845 61.9456 8.21052C61.4687 8.12279 61.0023 8.07857 60.5591 8.07857ZM53.162 8.30397H50.6817V17.656H53.162V8.30397ZM51.9472 4.31995C51.539 4.31995 51.1829 4.44321 50.8904 4.68745C50.5967 4.93239 50.4477 5.24078 50.4477 5.60473C50.4477 5.96296 50.5949 6.26573 50.8859 6.50415C51.1749 6.74188 51.5321 6.86238 51.9473 6.86238C52.3625 6.86238 52.721 6.74188 53.0135 6.50454C53.3079 6.26573 53.4572 5.96306 53.4572 5.60473C53.4572 5.25351 53.3119 4.94828 53.0256 4.69732C52.7396 4.44686 52.3766 4.31995 51.9472 4.31995ZM45.7586 7.61396V17.656H48.2899V4.60623H44.7865L40.3333 14.2992L36.0119 4.60623H32.3658V17.6559H34.7445V7.61298H34.8262L39.3896 17.656H41.1848L45.6769 7.61396H45.7586Z" fill="#F40009"/>
<path d="M115.475 10.098V8.30387H112.963V5.51473L112.878 5.53782L110.519 6.17809L110.472 6.19063V8.30397H106.748V7.12666C106.748 6.57846 106.886 6.15895 107.159 5.87918C107.429 5.60276 107.816 5.46223 108.31 5.46223C108.664 5.46223 109.032 5.53634 109.401 5.6825L109.494 5.71921V3.82978L109.45 3.81557C109.106 3.70563 108.637 3.65027 108.055 3.65027C107.323 3.65027 106.657 3.79168 106.076 4.07195C105.495 4.35261 105.038 4.75327 104.718 5.26269C104.399 5.77151 104.237 6.35918 104.237 7.00952V8.30387H102.488V10.098H104.237V17.6562H106.748V10.098H110.472V14.9011C110.472 16.8792 111.524 17.8817 113.599 17.8817C113.94 17.8817 114.299 17.8462 114.665 17.7769C115.038 17.7056 115.292 17.6345 115.442 17.5585L115.475 17.5411V15.7304L115.373 15.7903C115.236 15.8709 115.067 15.9367 114.868 15.9856C114.668 16.0355 114.501 16.0604 114.372 16.0604C113.886 16.0604 113.526 15.9443 113.303 15.715C113.077 15.4837 112.963 15.0792 112.963 14.5134V10.098H115.475ZM96.8808 16.0607C95.9694 16.0607 95.2509 15.7927 94.7445 15.2647C94.235 14.7341 93.9769 13.9776 93.9769 13.0164C93.9769 12.0247 94.235 11.2485 94.7447 10.7085C95.2514 10.1721 95.9631 9.89981 96.8604 9.89981C97.731 9.89981 98.4241 10.1598 98.9206 10.6731C99.4195 11.189 99.6727 11.959 99.6727 12.9622C99.6727 13.9778 99.4346 14.7579 98.9651 15.2797C98.4987 15.7976 97.7975 16.0607 96.8808 16.0607ZM96.9924 8.07857C95.2537 8.07857 93.8726 8.53045 92.8879 9.42168C91.9039 10.313 91.405 11.5465 91.405 13.0881C91.405 14.5524 91.892 15.7302 92.8526 16.5883C93.8133 17.4467 95.1207 17.8815 96.7382 17.8815C98.4236 17.8815 99.7772 17.4233 100.761 16.5197C101.746 15.6171 102.244 14.3953 102.244 12.8897C102.244 11.4025 101.776 10.2159 100.853 9.36356C99.9295 8.51082 98.6304 8.07857 96.9924 8.07857ZM87.3565 8.07857C86.1738 8.07857 85.1954 8.3469 84.448 8.87595C83.6961 9.40816 83.3147 10.1062 83.3147 10.9508C83.3147 11.3899 83.397 11.7799 83.559 12.1107C83.722 12.4425 83.9743 12.7347 84.3094 12.98C84.642 13.2232 85.1553 13.478 85.8356 13.7373C86.4075 13.946 86.834 14.1226 87.105 14.2617C87.3698 14.3981 87.5577 14.5352 87.6638 14.6687C87.767 14.7993 87.8193 14.9782 87.8193 15.1988C87.8193 15.8271 87.2888 16.1329 86.1971 16.1329C85.7922 16.1329 85.3304 16.0579 84.8244 15.91C84.3221 15.7644 83.848 15.5512 83.4187 15.2779L83.3144 15.2115V17.3557L83.3527 17.3715C83.708 17.5169 84.156 17.6396 84.6839 17.7361C85.2109 17.8327 85.6897 17.8819 86.1056 17.8819C87.389 17.8819 88.4226 17.6123 89.1767 17.0801C89.9357 16.5442 90.3203 15.8297 90.3203 14.9559C90.3203 14.3255 90.1133 13.7849 89.7051 13.3489C89.2998 12.9164 88.5963 12.5194 87.615 12.1685C86.8332 11.8902 86.3324 11.6592 86.1258 11.4818C85.9266 11.3105 85.8255 11.0682 85.8255 10.7614C85.8255 10.4895 85.9503 10.2716 86.2066 10.0951C86.4648 9.91777 86.8243 9.82757 87.2752 9.82757C87.6936 9.82757 88.1216 9.88619 88.5473 10.0011C88.9727 10.1159 89.3463 10.2698 89.6582 10.458L89.7608 10.5201V8.48624L89.7214 8.47124C89.4336 8.3618 89.0542 8.26815 88.5934 8.19216C88.1346 8.11667 87.7185 8.07857 87.3565 8.07857ZM76.7688 16.0607C75.8576 16.0607 75.1388 15.7927 74.6325 15.2647C74.1229 14.7341 73.8653 13.9778 73.8653 13.0164C73.8653 12.0247 74.1233 11.2485 74.6331 10.7085C75.1394 10.1721 75.8509 9.89981 76.7486 9.89981C77.6189 9.89981 78.312 10.1598 78.8086 10.6731C79.3076 11.189 79.5608 11.959 79.5608 12.9622C79.5608 13.9778 79.3225 14.7579 78.853 15.2797C78.3867 15.7976 77.6858 16.0607 76.7688 16.0607ZM76.8807 8.07857C75.1415 8.07857 73.7603 8.53045 72.7762 9.42168C71.7921 10.313 71.2929 11.5465 71.2929 13.0881C71.2929 14.553 71.7802 15.7302 72.7409 16.5883C73.7016 17.4467 75.0089 17.8815 76.6263 17.8815C78.3116 17.8815 79.6655 17.4233 80.6497 16.5197C81.6337 15.6171 82.1325 14.3953 82.1325 12.8897C82.1325 11.4025 81.6645 10.2159 80.7411 9.36356C79.8172 8.51082 78.5183 8.07857 76.8807 8.07857ZM67.4813 9.9235V8.30387H65.001V17.656H67.4813V12.872C67.4813 12.0586 67.6893 11.3903 68.0997 10.8855C68.5048 10.3867 69.0446 10.134 69.7038 10.134C69.9272 10.134 70.178 10.1667 70.4496 10.2313C70.7184 10.2955 70.9131 10.3653 71.028 10.4387L71.1322 10.5057V8.28789L71.0921 8.27259C70.8611 8.18555 70.5343 8.14163 70.1208 8.14163C69.4975 8.14163 68.9397 8.31927 68.4619 8.66901C68.0426 8.97641 67.7395 9.3979 67.5077 9.9235H67.4813ZM60.5591 8.07857C59.4212 8.07857 58.4062 8.29499 57.5429 8.72161C56.6778 9.14921 56.0088 9.75968 55.5536 10.5359C55.1004 11.3103 54.8703 12.2149 54.8703 13.2236C54.8703 14.1073 55.0934 14.9182 55.5343 15.6328C55.9755 16.3487 56.5999 16.9087 57.3904 17.2972C58.1797 17.6851 59.092 17.8818 60.1021 17.8818C61.2808 17.8818 62.2872 17.6728 63.0941 17.2606L63.1267 17.244V15.2285L63.0225 15.296C62.6569 15.5322 62.2485 15.7207 61.809 15.8565C61.3706 15.9921 60.9709 16.0607 60.6204 16.0607C59.6472 16.0607 58.8659 15.7906 58.2988 15.2581C57.7304 14.7249 57.4422 13.9762 57.4422 13.0341C57.4422 12.086 57.7428 11.318 58.335 10.7514C58.9255 10.1864 59.7083 9.89981 60.6614 9.89981C61.4766 9.89981 62.2711 10.1446 63.0227 10.6282L63.1267 10.6952V8.57161L63.0931 8.55483C62.8103 8.4144 62.4245 8.29845 61.9456 8.21052C61.4687 8.12279 61.0023 8.07857 60.5591 8.07857ZM53.162 8.30397H50.6817V17.656H53.162V8.30397ZM51.9472 4.31995C51.539 4.31995 51.1829 4.44321 50.8904 4.68745C50.5967 4.93239 50.4477 5.24078 50.4477 5.60473C50.4477 5.96296 50.5949 6.26573 50.8859 6.50415C51.1749 6.74188 51.5321 6.86238 51.9473 6.86238C52.3625 6.86238 52.721 6.74188 53.0135 6.50454C53.3079 6.26573 53.4572 5.96306 53.4572 5.60473C53.4572 5.25351 53.3119 4.94828 53.0256 4.69732C52.7396 4.44686 52.3766 4.31995 51.9472 4.31995ZM45.7586 7.61396V17.656H48.2899V4.60623H44.7865L40.3333 14.2992L36.0119 4.60623H32.3658V17.6559H34.7445V7.61298H34.8262L39.3896 17.656H41.1848L45.6769 7.61396H45.7586Z" fill="#434343"/>
<path d="M12.1218 10.5944H0.453491V0.245422H12.1218V10.5944Z" fill="#F40009"/>
<path d="M12.1218 10.5944H0.453491V0.245422H12.1218V10.5944Z" fill="#434343"/>
<path d="M25.0049 10.5944H13.3368V0.245422H25.0049V10.5944Z" fill="#F40009"/>
<path d="M25.0049 10.5944H13.3368V0.245422H25.0049V10.5944Z" fill="#434343"/>
<path d="M12.1214 22.0247H0.453491V11.6759H12.1214V22.0247Z" fill="#F40009"/>
<path d="M12.1214 22.0247H0.453491V11.6759H12.1214V22.0247Z" fill="#434343"/>
<path d="M25.0049 22.0247H13.3368V11.6759H25.0049V22.0247Z" fill="#F40009"/>
<path d="M25.0049 22.0247H13.3368V11.6759H25.0049V22.0247Z" fill="#434343"/>
</mask>
<g mask="url(#mask0_5_84)">
<rect x="-19" y="-27" width="137" height="85" fill="#F40009"/>
<rect x="-19" y="-27" width="137" height="85" fill="#434343"/>
</g>
</svg>
