<svg width="25" height="25" viewBox="0 0 25 25" fill="none" xmlns="http://www.w3.org/2000/svg">
<path d="M9.73075 0H14.5818C17.155 0 19.6228 1.05357 21.4423 2.92893C23.2618 4.8043 24.2839 7.34784 24.2839 10C24.2839 12.6522 23.2618 15.1957 21.4423 17.0711C19.6228 18.9464 17.155 20 14.5818 20V24.375C8.51799 21.875 0.0286255 18.125 0.0286255 10C0.0286255 7.34784 1.05081 4.8043 2.87031 2.92893C4.68981 1.05357 7.15759 0 9.73075 0ZM12.1563 17.5H14.5818C16.5117 17.5 18.3625 16.7098 19.7271 15.3033C21.0918 13.8968 21.8584 11.9891 21.8584 10C21.8584 8.01088 21.0918 6.10322 19.7271 4.6967C18.3625 3.29018 16.5117 2.5 14.5818 2.5H9.73075C7.80088 2.5 5.95005 3.29018 4.58542 4.6967C3.2208 6.10322 2.45416 8.01088 2.45416 10C2.45416 14.5125 5.43999 17.4575 12.1563 20.6V17.5Z" fill="#6563FF"/>
</svg>
