<svg width="112" height="18" viewBox="0 0 112 18" fill="none" xmlns="http://www.w3.org/2000/svg">
<path fill-rule="evenodd" clip-rule="evenodd" d="M110.809 15.0718C110.809 14.9316 110.739 14.7841 110.598 14.7137C110.456 14.6397 110.297 14.6324 110.138 14.6324H109.315V16.2935H109.546V15.5273H109.97L110.509 16.2935H110.783L110.213 15.5273C110.549 15.519 110.809 15.3986 110.809 15.0718ZM109.899 15.3673H109.545V14.7799H110.084C110.318 14.7799 110.575 14.8112 110.575 15.0681C110.576 15.4064 110.164 15.3673 109.899 15.3673ZM100.047 7.04112L103.499 3.79664C103.699 3.55845 103.798 3.39167 103.798 3.24886C103.798 3.01067 103.565 2.91529 102.834 2.91529H101.963V0.866968H111.389V2.91529H110.151C108.72 2.91529 108.454 3.10553 106.459 5.32063L100.998 10.5118V13.6797C100.998 14.4901 101.463 14.7752 102.794 14.7752H104.855V16.7516H91.6525V14.7752H93.7139C95.0436 14.7752 95.5096 14.4901 95.5096 13.6797V10.5118L89.0783 4.24852C88.0156 3.15348 88.1624 2.91529 85.2034 2.91529V0.866968H97.1436V2.91529H96.2934C95.4285 2.91529 95.062 3.0581 95.062 3.34372C95.062 3.58243 95.3278 3.77266 95.4942 3.9629L98.748 7.0849C99.1346 7.4388 99.6065 7.48466 100.047 7.04112ZM19.9343 0.866447H22.8145V6.58194H20.1545C19.9189 5.43947 19.1066 4.99488 18.366 4.3955C17.0297 3.31453 14.1358 2.41441 11.702 2.41441C8.56064 2.41441 5.90949 3.27231 5.90949 4.53362C5.90949 8.03505 23.8749 5.24871 23.8749 11.869C23.8749 15.322 20.0266 17.2509 13.1158 17.2509C10.7233 17.2509 7.10304 16.5974 4.96697 15.5987C4.29738 15.2584 4.0132 15.9208 3.88769 16.7511H0.934606V10.8449H3.60588C4.19495 12.3454 5.00664 12.6545 5.7532 13.2502C7.04857 14.2983 10.1319 15.0609 12.9595 15.0364C17.2227 14.9993 18.6886 14.179 18.6886 12.988C18.6886 11.7976 17.2387 11.5115 12.567 10.8688L8.6003 10.2971C4.12391 9.70133 0.864746 8.8205 0.864746 5.67714C0.864746 2.41441 4.98769 0.36609 11.5066 0.36609C14.2537 0.36609 16.552 0.689238 18.7579 1.78689C19.3689 2.13661 19.942 2.17831 19.9343 0.866447ZM76.1446 10.4357L76.2015 4.0833C76.2015 3.2499 75.7089 2.96428 74.3016 2.96428H72.6481V0.987884H83.1686V2.96428H81.7974C80.3889 2.96428 79.8964 3.25042 79.8964 4.0833V16.872L75.7787 16.8434L62.4437 5.72665V13.8001C62.4437 14.61 62.9363 14.9191 64.3436 14.9191H66.1741V16.872H55.2481V14.9191H57.0585C58.4658 14.9191 58.9584 14.6095 58.9584 13.8001V4.0833C58.9584 3.2499 58.4658 2.96428 57.0585 2.96428H55.2481V0.987884H64.6946L76.1446 10.4357ZM40.9048 0.246216C32.5204 0.246216 27.272 3.50946 27.272 8.74805C27.272 13.8928 32.4476 17.1311 40.649 17.1311C49.3603 17.1311 54.4275 13.9403 54.4275 8.48641C54.4281 3.58086 48.9601 0.246216 40.9048 0.246216ZM40.7142 15.0598C36.0732 15.0598 33.4055 12.7019 33.4055 8.62922C33.4055 4.65245 36.1892 2.29454 40.9463 2.29454C45.5097 2.29454 48.1774 4.7004 48.1774 8.79653C48.1774 12.7973 45.4706 15.0598 40.7142 15.0598Z" fill="#F40009"/>
<path fill-rule="evenodd" clip-rule="evenodd" d="M110.809 15.0718C110.809 14.9316 110.739 14.7841 110.598 14.7137C110.456 14.6397 110.297 14.6324 110.138 14.6324H109.315V16.2935H109.546V15.5273H109.97L110.509 16.2935H110.783L110.213 15.5273C110.549 15.519 110.809 15.3986 110.809 15.0718ZM109.899 15.3673H109.545V14.7799H110.084C110.318 14.7799 110.575 14.8112 110.575 15.0681C110.576 15.4064 110.164 15.3673 109.899 15.3673ZM100.047 7.04112L103.499 3.79664C103.699 3.55845 103.798 3.39167 103.798 3.24886C103.798 3.01067 103.565 2.91529 102.834 2.91529H101.963V0.866968H111.389V2.91529H110.151C108.72 2.91529 108.454 3.10553 106.459 5.32063L100.998 10.5118V13.6797C100.998 14.4901 101.463 14.7752 102.794 14.7752H104.855V16.7516H91.6525V14.7752H93.7139C95.0436 14.7752 95.5096 14.4901 95.5096 13.6797V10.5118L89.0783 4.24852C88.0156 3.15348 88.1624 2.91529 85.2034 2.91529V0.866968H97.1436V2.91529H96.2934C95.4285 2.91529 95.062 3.0581 95.062 3.34372C95.062 3.58243 95.3278 3.77266 95.4942 3.9629L98.748 7.0849C99.1346 7.4388 99.6065 7.48466 100.047 7.04112ZM19.9343 0.866447H22.8145V6.58194H20.1545C19.9189 5.43947 19.1066 4.99488 18.366 4.3955C17.0297 3.31453 14.1358 2.41441 11.702 2.41441C8.56064 2.41441 5.90949 3.27231 5.90949 4.53362C5.90949 8.03505 23.8749 5.24871 23.8749 11.869C23.8749 15.322 20.0266 17.2509 13.1158 17.2509C10.7233 17.2509 7.10304 16.5974 4.96697 15.5987C4.29738 15.2584 4.0132 15.9208 3.88769 16.7511H0.934606V10.8449H3.60588C4.19495 12.3454 5.00664 12.6545 5.7532 13.2502C7.04857 14.2983 10.1319 15.0609 12.9595 15.0364C17.2227 14.9993 18.6886 14.179 18.6886 12.988C18.6886 11.7976 17.2387 11.5115 12.567 10.8688L8.6003 10.2971C4.12391 9.70133 0.864746 8.8205 0.864746 5.67714C0.864746 2.41441 4.98769 0.36609 11.5066 0.36609C14.2537 0.36609 16.552 0.689238 18.7579 1.78689C19.3689 2.13661 19.942 2.17831 19.9343 0.866447ZM76.1446 10.4357L76.2015 4.0833C76.2015 3.2499 75.7089 2.96428 74.3016 2.96428H72.6481V0.987884H83.1686V2.96428H81.7974C80.3889 2.96428 79.8964 3.25042 79.8964 4.0833V16.872L75.7787 16.8434L62.4437 5.72665V13.8001C62.4437 14.61 62.9363 14.9191 64.3436 14.9191H66.1741V16.872H55.2481V14.9191H57.0585C58.4658 14.9191 58.9584 14.6095 58.9584 13.8001V4.0833C58.9584 3.2499 58.4658 2.96428 57.0585 2.96428H55.2481V0.987884H64.6946L76.1446 10.4357ZM40.9048 0.246216C32.5204 0.246216 27.272 3.50946 27.272 8.74805C27.272 13.8928 32.4476 17.1311 40.649 17.1311C49.3603 17.1311 54.4275 13.9403 54.4275 8.48641C54.4281 3.58086 48.9601 0.246216 40.9048 0.246216ZM40.7142 15.0598C36.0732 15.0598 33.4055 12.7019 33.4055 8.62922C33.4055 4.65245 36.1892 2.29454 40.9463 2.29454C45.5097 2.29454 48.1774 4.7004 48.1774 8.79653C48.1774 12.7973 45.4706 15.0598 40.7142 15.0598Z" fill="#434343"/>
</svg>
