<svg width="31" height="22" viewBox="0 0 31 22" fill="none" xmlns="http://www.w3.org/2000/svg">
<path d="M30.2352 2.60431C29.1087 3.05339 27.9138 3.34816 26.6902 3.47883C27.9647 2.79148 28.9433 1.70304 29.4041 0.40617C28.1925 1.05311 26.867 1.50892 25.4847 1.7539C24.3588 0.674553 22.7548 0 20.9795 0C17.5708 0 14.8071 2.48672 14.8071 5.55377C14.8071 5.98913 14.8618 6.41296 14.967 6.81955C9.83734 6.58786 5.28943 4.37682 2.24515 1.01664C1.71397 1.83691 1.4096 2.79106 1.4096 3.80875C1.4096 5.73566 2.49934 7.43552 4.15539 8.43154C3.17524 8.40392 2.21665 8.1657 1.35966 7.73679C1.35931 7.76005 1.35931 7.78332 1.35931 7.80669C1.35931 10.4976 3.48684 12.7424 6.3103 13.2526C5.40141 13.475 4.44804 13.5076 3.52303 13.3478C4.3084 15.5543 6.58788 17.1599 9.28865 17.2048C7.17628 18.6944 4.51488 19.5823 1.62325 19.5823C1.12498 19.5823 0.633757 19.556 0.150879 19.5047C2.88233 21.0805 6.12662 22 9.61218 22C20.9652 22 27.1732 13.5371 27.1732 6.19787C27.1732 5.95698 27.1673 5.71747 27.1554 5.47933C28.3637 4.6933 29.4067 3.71973 30.2352 2.60431Z" fill="#D9D9D9"/>
</svg>
